<?xml version="1.0" standalone="no"?>
<!DOCTYPE svg PUBLIC "-//W3C//DTD SVG 20010904//EN"
 "http://www.w3.org/TR/2001/REC-SVG-20010904/DTD/svg10.dtd">
<svg version="1.0" xmlns="http://www.w3.org/2000/svg"
 width="770.000000pt" height="303.000000pt" viewBox="0 0 770.000000 303.000000"
 preserveAspectRatio="xMidYMid meet">
<metadata>
Created by potrace 1.15, written by Peter Selinger 2001-2017
</metadata>
<g transform="translate(0.000000,303.000000) scale(0.100000,-0.100000)"
fill="#000000" stroke="none">
<path d="M4043 2736 c-78 -25 -205 -108 -237 -155 -17 -24 -52 -71 -78 -104
-29 -35 -48 -70 -48 -85 0 -14 14 -47 31 -74 l31 -49 -16 -42 c-21 -53 -39
-75 -96 -114 -59 -41 -114 -100 -186 -198 -32 -44 -79 -105 -105 -135 -67 -79
-81 -111 -87 -207 -5 -80 -7 -85 -36 -108 -17 -12 -49 -30 -71 -39 -54 -23
-75 -44 -75 -77 0 -57 47 -77 126 -54 74 21 84 16 84 -40 0 -33 6 -51 21 -66
20 -20 29 -21 126 -17 120 5 141 16 123 63 -14 36 -2 45 60 45 58 0 66 -6 75
-58 4 -28 14 -46 28 -54 30 -17 225 -17 255 0 29 17 29 56 -2 87 -26 26 -24
35 9 35 39 0 84 21 91 43 7 22 7 22 15 2 4 -11 8 -37 8 -58 1 -50 26 -95 56
-103 48 -12 213 0 230 17 25 25 2 75 -46 99 -60 31 -70 53 -58 131 7 44 7 120
0 230 -6 114 -6 190 2 251 8 66 8 99 -1 135 -13 54 -5 103 24 154 27 45 40 46
49 2 14 -76 56 -133 99 -133 18 0 36 57 36 116 0 30 6 46 25 64 32 30 31 48
-4 118 -16 31 -39 90 -52 130 -22 70 -28 77 -107 147 -45 40 -100 81 -120 91
-48 23 -126 27 -179 10z m11 -1178 c3 -18 7 -68 10 -111 l6 -79 -30 25 c-17
15 -54 31 -87 37 -32 7 -61 13 -65 14 -15 3 135 146 153 146 4 0 10 -15 13
-32z"/>
<path d="M465 1001 c-133 -35 -214 -140 -215 -276 0 -88 28 -153 93 -212 43
-40 121 -73 170 -73 11 0 40 -18 64 -41 77 -71 142 -85 221 -49 45 20 62 44
44 62 -7 7 -21 4 -47 -12 -28 -17 -46 -21 -80 -18 -40 5 -105 40 -105 57 0 4
19 13 42 20 57 18 139 102 161 165 49 144 -14 300 -145 356 -57 24 -153 34
-203 21z m184 -67 c127 -64 167 -234 81 -352 -77 -107 -259 -122 -358 -29 -68
63 -89 199 -45 282 61 115 203 158 322 99z"/>
<path d="M960 827 c0 -250 19 -309 113 -360 62 -32 176 -31 237 3 92 52 110
113 110 365 l0 175 -30 0 -30 0 0 -197 c0 -174 -3 -203 -20 -241 -50 -110
-246 -109 -299 2 -19 38 -21 61 -21 239 l0 197 -30 0 -30 0 0 -183z"/>
<path d="M1600 725 l0 -285 30 0 30 0 0 285 0 285 -30 0 -30 0 0 -285z"/>
<path d="M1840 725 l0 -285 30 0 30 0 2 229 3 230 179 -230 c143 -184 183
-229 202 -229 l24 0 0 285 0 285 -30 0 -30 0 -2 -229 -3 -230 -179 230 c-144
185 -183 229 -202 229 l-24 0 0 -285z"/>
<path d="M2410 985 c0 -25 0 -25 95 -25 l95 0 0 -260 0 -260 30 0 30 0 0 260
0 260 95 0 c95 0 95 0 95 25 l0 25 -220 0 -220 0 0 -25z"/>
<path d="M3068 963 c-12 -27 -68 -151 -125 -277 -56 -126 -103 -233 -103 -238
0 -4 12 -8 26 -8 22 0 30 10 59 75 l34 75 159 0 158 0 31 -72 c28 -66 34 -73
62 -76 l31 -3 -23 53 c-224 505 -231 518 -260 518 -24 0 -31 -7 -49 -47z m121
-177 c34 -77 60 -141 57 -143 -2 -2 -62 -2 -133 -1 l-130 3 65 148 c35 82 68
145 72 140 4 -4 35 -71 69 -147z"/>
<path d="M3710 725 l0 -287 153 4 c172 4 220 18 290 86 101 98 101 296 0 394
-70 68 -118 82 -290 86 l-153 4 0 -287z m353 202 c150 -88 150 -316 0 -404
-45 -26 -57 -28 -175 -32 l-128 -3 0 237 0 237 128 -3 c118 -4 130 -6 175 -32z"/>
<path d="M4525 997 c-66 -22 -101 -44 -138 -88 -121 -140 -72 -365 95 -440 74
-33 193 -33 258 0 58 30 106 75 133 126 18 32 22 57 22 130 0 101 -17 145 -77
201 -74 70 -202 101 -293 71z m192 -61 c172 -80 172 -342 0 -422 -184 -85
-381 68 -338 262 34 151 194 227 338 160z"/>
<path d="M5250 725 l0 -285 25 0 25 0 2 226 3 226 110 -191 c61 -105 115 -191
122 -191 6 0 60 85 120 190 l108 189 3 -224 2 -225 30 0 30 0 0 285 0 285 -24
0 c-21 0 -39 -26 -137 -197 -61 -109 -117 -204 -123 -210 -9 -10 -39 36 -131
197 -100 174 -124 209 -142 210 l-23 0 0 -285z"/>
<path d="M6010 725 l0 -285 30 0 30 0 0 285 0 285 -30 0 -30 0 0 -285z"/>
<path d="M6398 963 c-12 -27 -68 -151 -125 -277 -56 -126 -103 -233 -103 -238
0 -4 12 -8 26 -8 22 0 30 10 59 75 l34 75 159 0 158 0 31 -72 c28 -66 34 -73
62 -76 l31 -3 -23 53 c-224 505 -231 518 -260 518 -24 0 -31 -7 -49 -47z m121
-177 c34 -77 60 -141 57 -143 -2 -2 -62 -2 -133 -1 l-130 3 65 148 c35 82 68
145 72 140 4 -4 35 -71 69 -147z"/>
<path d="M6962 992 c-73 -27 -122 -69 -157 -137 -61 -119 -29 -274 73 -352
117 -89 295 -79 397 22 55 55 77 113 77 200 0 87 -22 145 -77 200 -76 76 -209
104 -313 67z m182 -44 c54 -16 128 -90 144 -144 28 -95 8 -178 -58 -244 -89
-90 -230 -95 -322 -12 -54 49 -78 102 -78 177 0 167 149 272 314 223z"/>
</g>
</svg>
